<svg xmlns="http://www.w3.org/2000/svg" version="1.1" xmlns:xlink="http://www.w3.org/1999/xlink" xmlns:svgjs="http://svgjs.dev/svgjs" width="1500" height="265" viewBox="0 0 1500 265"><g transform="matrix(1,0,0,1,-0.9085883838113205,-0.22738242774317996)"><svg viewBox="0 0 396 70" data-background-color="#ffffff" preserveAspectRatio="xMidYMid meet" height="265" width="1500" xmlns="http://www.w3.org/2000/svg" xmlns:xlink="http://www.w3.org/1999/xlink"><g id="tight-bounds" transform="matrix(1,0,0,1,0.23986733332617405,0.06006328280008688)"><svg viewBox="0 0 395.52 69.8798734343998" height="69.8798734343998" width="395.52"><g><svg viewBox="0 0 506.80491849629203 89.54152396958989" height="69.8798734343998" width="395.52"><g transform="matrix(1,0,0,1,111.28491849629204,12.375131026187894)"><svg viewBox="0 0 395.52 64.7912619172141" height="64.7912619172141" width="395.52"><g id="textblocktransform"><svg viewBox="0 0 395.52 64.7912619172141" height="64.7912619172141" width="395.52" id="textblock"><g><svg viewBox="0 0 395.52 41.376499099436614" height="41.376499099436614" width="395.52"><g transform="matrix(1,0,0,1,0,0)"><svg width="395.52" viewBox="2.2 -32.4 314.45272969683657 32.9" height="41.376499099436614" data-palette-color="#aaaaaa"><g transform="matrix(1,0,0,1,0,0)"><g><svg width="10.334869696836575" viewBox="1.78 -36.36 74.21 36.36" height="5.0635916600768685" data-palette-color="#aaaaaa" id="scriptelement" x="304.1774348484183" y="-9.839655830038435"><path d="M12.91-30.02L1.78-30.02 1.78-36.36 31.64-36.36 31.64-30.02 20.51-30.02 20.51 0 12.91 0 12.91-30.02ZM36.57 0L36.57-36.36 46.06-36.36 56.07-11.93 56.5-11.93 66.51-36.36 75.99-36.36 75.99 0 68.53 0 68.53-23.67 68.23-23.67 58.82-0.18 53.74-0.18 44.33-23.76 44.03-23.76 44.03 0 36.57 0Z" opacity="1" transform="matrix(1,0,0,1,0,0)" fill="#aaaaaa" class="undefined-123" data-fill-palette-color="primary" id="lv-123"></path></svg></g></g><path d="M302.037-7.308C302.037-11.344 305.309-14.616 309.345-14.616 313.381-14.616 316.653-11.344 316.653-7.308 316.653-3.272 313.381 0 309.345 0 305.309 0 302.037-3.272 302.037-7.308ZM309.345-0.4C313.16-0.4 316.253-3.493 316.253-7.308 316.253-11.123 313.16-14.216 309.345-14.216 305.53-14.216 302.437-11.123 302.437-7.308 302.437-3.493 305.53-0.4 309.345-0.4Z" fill="#aaaaaa" id="scriptcircle" data-fill-palette-color="primary"></path><path d="M12.9-10.15L12.9-10.15 10.6-10.15 10.6 0 2.2 0 2.2-31.05 12.35-31.05Q17.7-31.05 20.3-28.6 22.9-26.15 22.9-20.55 22.9-14.95 20.45-12.55 18-10.15 12.9-10.15ZM13.85-16.9Q14.3-17.75 14.3-19.95 14.3-22.15 13.8-23.05 13.3-23.95 11.8-23.95L11.8-23.95 10.6-23.95 10.6-16.05 12-16.05Q13.4-16.05 13.85-16.9ZM33-13.45L33-13.45 33 0 24.7 0 24.7-23.95 32-23.95 32.5-22.5 32.7-22.5Q33.85-23.8 35.02-24.18 36.2-24.55 38.85-24.55L38.85-24.55 38.5-16.55 36.2-16.55Q34.25-16.55 33.62-15.95 33-15.35 33-13.45ZM39.95-12.08Q39.95-18.65 42.47-21.6 45-24.55 50.37-24.55 55.75-24.55 58.2-21.65 60.65-18.75 60.65-12.13 60.65-5.5 58.25-2.5 55.85 0.5 50.4 0.5 44.95 0.5 42.45-2.5 39.95-5.5 39.95-12.08ZM51.97-16.8Q51.65-17.8 50.35-17.8 49.05-17.8 48.7-16.8 48.35-15.8 48.35-12.6L48.35-12.6 48.35-11.4Q48.35-7.85 48.7-6.8 49.05-5.75 50.32-5.75 51.6-5.75 51.95-6.8 52.3-7.85 52.3-11.1L52.3-11.1 52.3-12.55Q52.3-15.8 51.97-16.8ZM71.14-32.4L71.14-32.4Q74.24-32.4 77.64-32.1L77.64-32.1 76.94-24.8Q74.69-25.05 73.67-25.05 72.64-25.05 72.64-24.15L72.64-24.15 72.64-23.25 76.74-23.25 76.34-17.05 72.74-17.05 72.74 0 64.39 0 64.39-17.05 62.19-17.05 62.19-23.25 64.39-23.25 64.39-25.75Q64.39-32.4 71.14-32.4ZM77.49-12.08Q77.49-18.65 80.02-21.6 82.54-24.55 87.92-24.55 93.29-24.55 95.74-21.65 98.19-18.75 98.19-12.13 98.19-5.5 95.79-2.5 93.39 0.5 87.94 0.5 82.49 0.5 79.99-2.5 77.49-5.5 77.49-12.08ZM89.52-16.8Q89.19-17.8 87.89-17.8 86.59-17.8 86.24-16.8 85.89-15.8 85.89-12.6L85.89-12.6 85.89-11.4Q85.89-7.85 86.24-6.8 86.59-5.75 87.87-5.75 89.14-5.75 89.49-6.8 89.84-7.85 89.84-11.1L89.84-11.1 89.84-12.55Q89.84-15.8 89.52-16.8ZM100.79-5.5L100.79-5.5 100.79-32.05 109.04-32.05 109.04-8.15Q109.04-7.3 109.41-6.95 109.79-6.6 110.74-6.6L110.74-6.6 110.09 0.5 107.34 0.5Q104.04 0.5 102.41-0.88 100.79-2.25 100.79-5.5ZM120.89-23.7L120.89 0 112.64 0 112.64-23.7 120.89-23.7ZM113.29-25.6Q112.24-26.5 112.24-28.5 112.24-30.5 113.29-31.45 114.34-32.4 116.74-32.4 119.14-32.4 120.19-31.45 121.24-30.5 121.24-28.53 121.24-26.55 120.19-25.63 119.14-24.7 116.74-24.7 114.34-24.7 113.29-25.6ZM123.63-12.08Q123.63-18.65 126.16-21.6 128.68-24.55 134.06-24.55 139.43-24.55 141.88-21.65 144.33-18.75 144.33-12.13 144.33-5.5 141.93-2.5 139.53 0.5 134.08 0.5 128.63 0.5 126.13-2.5 123.63-5.5 123.63-12.08ZM135.66-16.8Q135.33-17.8 134.03-17.8 132.73-17.8 132.38-16.8 132.03-15.8 132.03-12.6L132.03-12.6 132.03-11.4Q132.03-7.85 132.38-6.8 132.73-5.75 134.01-5.75 135.28-5.75 135.63-6.8 135.98-7.85 135.98-11.1L135.98-11.1 135.98-12.55Q135.98-15.8 135.66-16.8ZM165.83-15.23Q165.83-10.8 166.7-8.93 167.58-7.05 169.58-7.05 171.58-7.05 175.23-8L175.23-8 176.53-0.95Q172.58 0.5 168.58 0.5L168.58 0.5Q162.58 0.5 159.85-3.48 157.13-7.45 157.13-15.33 157.13-23.2 159.98-27.38 162.83-31.55 169.28-31.55L169.28-31.55Q173.08-31.55 176.53-29.95L176.53-29.95 175.18-22.2Q171.28-23.5 169.73-23.5L169.73-23.5Q167.53-23.5 166.68-21.58 165.83-19.65 165.83-15.23ZM186.23-13.45L186.23-13.45 186.23 0 177.93 0 177.93-23.95 185.23-23.95 185.73-22.5 185.93-22.5Q187.08-23.8 188.25-24.18 189.43-24.55 192.08-24.55L192.08-24.55 191.73-16.55 189.43-16.55Q187.48-16.55 186.85-15.95 186.23-15.35 186.23-13.45ZM211.62-17.7L211.62-17.7 211.37-7.35Q211.37-6.4 211.85-6.08 212.32-5.75 213.47-5.75L213.47-5.75 212.72 0.3Q209.82 0.5 209.52 0.5L209.52 0.5Q205.82 0.5 204.82-2.05L204.82-2.05 204.57-2.05Q202.72 0.5 198.87 0.5L198.87 0.5Q195.92 0.5 194.35-1.4 192.77-3.3 192.77-6.6L192.77-6.6Q192.77-10.75 195.35-12.35 197.92-13.95 203.47-14.45L203.47-14.45 203.47-15.65Q203.47-17.05 202.07-17.05L202.07-17.05Q199.67-17.05 194.57-15.6L194.57-15.6 193.32-22.9Q199.72-24.55 203.97-24.55 208.22-24.55 209.92-22.9 211.62-21.25 211.62-17.7ZM201.97-5.35L201.97-5.35Q203.82-5.35 203.82-7.3L203.82-7.3 203.82-9.75Q201.97-9.5 201.2-8.97 200.42-8.45 200.42-7.2L200.42-7.2Q200.42-5.35 201.97-5.35ZM223.27-32.4L223.27-32.4Q226.37-32.4 229.77-32.1L229.77-32.1 229.07-24.8Q226.82-25.05 225.8-25.05 224.77-25.05 224.77-24.15L224.77-24.15 224.77-23.25 228.87-23.25 228.47-17.05 224.87-17.05 224.87 0 216.52 0 216.52-17.05 214.32-17.05 214.32-23.25 216.52-23.25 216.52-25.75Q216.52-32.4 223.27-32.4ZM243.77-6.6L243.52 0.05Q239.82 0.5 237.09 0.5 234.37 0.5 232.84-0.93 231.32-2.35 231.32-5.85L231.32-5.85 231.32-17.45 228.92-17.45 228.92-23.65 231.72-23.65 232.17-28.25 239.72-28.25 239.72-23.65 244.17-23.65 243.82-17.45 239.67-17.45 239.67-7.5Q239.67-6.45 240.67-6.45L240.67-6.45Q240.77-6.45 243.77-6.6L243.77-6.6ZM255.87-17.4L255.87-17.4Q254.57-17.4 254.17-16.53 253.77-15.65 253.77-13.85L253.77-13.85 258.12-13.85 258.12-15.05Q258.12-17.4 255.87-17.4ZM256.07-24.55L256.07-24.55Q261.22-24.55 263.44-22.08 265.67-19.6 265.67-15L265.67-15Q265.67-14.4 265.32-9.6L265.32-9.6 253.92-9.6Q253.92-5.85 257.37-5.85L257.37-5.85Q259.02-5.85 263.82-7L263.82-7 264.52-0.8Q260.32 0.5 256.12 0.5L256.12 0.5Q250.97 0.5 248.22-2.88 245.47-6.25 245.47-12.05L245.47-12.05Q245.47-24.55 256.07-24.55ZM276.26-13.45L276.26-13.45 276.26 0 267.96 0 267.96-23.95 275.26-23.95 275.76-22.5 275.96-22.5Q277.11-23.8 278.29-24.18 279.46-24.55 282.11-24.55L282.11-24.55 281.76-16.55 279.46-16.55Q277.51-16.55 276.89-15.95 276.26-15.35 276.26-13.45ZM282.31-16.88Q282.31-20.5 284.54-22.53 286.76-24.55 290.66-24.55 294.56-24.55 298.56-23.55L298.56-23.55 297.71-16.6Q292.61-17.75 290.86-17.75L290.86-17.75Q289.81-17.75 289.81-16.9L289.81-16.9Q289.81-16.35 290.96-15.9L290.96-15.9Q294.96-14.45 296.99-12.6 299.01-10.75 299.01-7.05 299.01-3.35 297.11-1.43 295.21 0.5 291.29 0.5 287.36 0.5 283.46-0.5L283.46-0.5 284.01-7.25Q289.01-5.9 290.49-5.9 291.96-5.9 291.96-6.6 291.96-7.3 290.86-7.7L290.86-7.7Q286.41-9.4 284.36-11.33 282.31-13.25 282.31-16.88Z" opacity="1" transform="matrix(1,0,0,1,0,0)" fill="#aaaaaa" class="wordmark-text-0" data-fill-palette-color="primary" id="text-0"></path></svg></g></svg></g><g transform="matrix(1,0,0,1,0,51.144497500835215)"><svg viewBox="0 0 232.209792 13.646764416378884" height="13.646764416378884" width="232.209792"><g transform="matrix(1,0,0,1,0,0)"><svg width="232.209792" viewBox="1.1 -36.5 810.72 47.65" height="13.646764416378884" data-palette-color="#aaaaaa"><path d="M1.1-18.05L1.1-18.05Q1.1-21.3 2.33-24.43 3.55-27.55 5.9-30.1 8.25-32.65 11.63-34.18 15-35.7 19.25-35.7L19.25-35.7Q24.35-35.7 28.15-33.58 31.95-31.45 33.8-27.95L33.8-27.95 26.35-22.65Q25.7-24.4 24.48-25.35 23.25-26.3 21.83-26.68 20.4-27.05 19.05-27.05L19.05-27.05Q16.95-27.05 15.43-26.23 13.9-25.4 12.93-24.05 11.95-22.7 11.48-21.05 11-19.4 11-17.75L11-17.75Q11-15.9 11.55-14.2 12.1-12.5 13.15-11.18 14.2-9.85 15.73-9.1 17.25-8.35 19.15-8.35L19.15-8.35Q20.5-8.35 21.9-8.78 23.3-9.2 24.45-10.15 25.6-11.1 26.2-12.7L26.2-12.7 34.15-7.95Q33.1-5.35 30.65-3.5 28.2-1.65 25.1-0.68 22 0.3 18.95 0.3L18.95 0.3Q15 0.3 11.73-1.28 8.45-2.85 6.08-5.48 3.7-8.1 2.4-11.38 1.1-14.65 1.1-18.05ZM33.65-35.5L43.95-35.5 50.9-11.25 57.75-35.5 68-35.5 55.75 0 46.05 0 33.65-35.5ZM95.54-18.55L89.64-35.5 98.59-35.5 101.84-24.55 105.14-35.5 114.09-35.5 108.09-18.55 110.64-11.3 118.29-35.5 128.89-35.5 115.49 0 107.04 0 101.84-12.7 96.69 0 88.24 0 74.84-35.5 85.39-35.5 93.09-11.3 95.54-18.55ZM146.29-26.75L146.29-18.2Q143.54-18.2 141.29-17.6 139.04-17 137.94-15.6L137.94-15.6 137.94 0 128.44 0 128.44-26.3 137.14-26.3 137.14-21.3Q138.54-23.95 140.64-25.38 142.74-26.8 145.09-26.8L145.09-26.8Q145.64-26.8 145.87-26.8 146.09-26.8 146.29-26.75L146.29-26.75ZM158.74 0L149.24 0 149.24-26.3 158.74-26.3 158.74 0ZM158.74-28.5L149.24-28.5 149.24-36.5 158.74-36.5 158.74-28.5ZM180.29-8.95L181.99-1.45Q180.69-0.9 179.21-0.43 177.74 0.05 176.21 0.3 174.69 0.55 173.24 0.55L173.24 0.55Q171.09 0.55 169.29-0.18 167.49-0.9 166.41-2.58 165.34-4.25 165.34-7.1L165.34-7.1 165.34-19.15 162.09-19.15 162.09-26.3 165.34-26.3 165.34-34.55 174.84-34.55 174.84-26.3 179.99-26.3 179.99-19.15 174.84-19.15 174.84-10.45Q174.84-9.15 175.39-8.63 175.94-8.1 176.89-8.1L176.89-8.1Q177.59-8.1 178.49-8.35 179.39-8.6 180.29-8.95L180.29-8.95ZM194.18 0L184.68 0 184.68-26.3 194.18-26.3 194.18 0ZM194.18-28.5L184.68-28.5 184.68-36.5 194.18-36.5 194.18-28.5ZM225.43-17.3L225.43 0 215.93 0 215.93-14.8Q215.93-16.75 215.06-17.63 214.18-18.5 213.03-18.5L213.03-18.5Q212.23-18.5 211.33-18.03 210.43-17.55 209.68-16.7 208.93-15.85 208.48-14.75L208.48-14.75 208.48 0 198.98 0 198.98-26.3 207.53-26.3 207.53-22.4Q208.48-23.85 209.93-24.83 211.38-25.8 213.28-26.3 215.18-26.8 217.43-26.8L217.43-26.8Q220.13-26.8 221.73-25.85 223.33-24.9 224.13-23.4 224.93-21.9 225.18-20.28 225.43-18.65 225.43-17.3L225.43-17.3ZM240.13 0L240.13 0Q237.58 0 235.45-1 233.33-2 231.83-3.8 230.33-5.6 229.5-8 228.68-10.4 228.68-13.2L228.68-13.2Q228.68-16.15 229.58-18.63 230.48-21.1 232.1-22.95 233.73-24.8 235.98-25.8 238.23-26.8 240.93-26.8L240.93-26.8Q243.73-26.8 245.9-25.68 248.08-24.55 249.33-22.4L249.33-22.4 249.33-26.3 257.58-26.3 257.58-2.4Q257.58 1.7 255.58 4.75 253.58 7.8 249.98 9.47 246.38 11.15 241.58 11.15L241.58 11.15Q237.43 11.15 234.3 9.85 231.18 8.55 228.78 6.1L228.78 6.1 233.78 0.9Q235.23 2.25 237.25 3.18 239.28 4.1 241.58 4.1L241.58 4.1Q243.33 4.1 244.8 3.45 246.28 2.8 247.18 1.38 248.08-0.05 248.08-2.4L248.08-2.4 248.08-4.1Q246.98-2.05 244.8-1.03 242.63 0 240.13 0ZM243.53-7.5L243.53-7.5Q244.23-7.5 244.85-7.68 245.48-7.85 246.03-8.18 246.58-8.5 247.1-9.03 247.63-9.55 248.08-10.2L248.08-10.2 248.08-14.9Q247.63-16.1 246.83-16.98 246.03-17.85 245.08-18.32 244.13-18.8 243.13-18.8L243.13-18.8Q242.13-18.8 241.25-18.35 240.38-17.9 239.73-17.07 239.08-16.25 238.73-15.2 238.38-14.15 238.38-12.95L238.38-12.95Q238.38-11.75 238.75-10.75 239.13-9.75 239.83-9.03 240.53-8.3 241.48-7.9 242.43-7.5 243.53-7.5ZM308.97 0L296.52 0 280.72-16.9Q278.62-19.15 277.37-20.75 276.12-22.35 275.6-23.75 275.07-25.15 275.07-26.8L275.07-26.8Q275.07-29.7 276.42-31.75 277.77-33.8 280.15-34.88 282.52-35.95 285.47-35.95L285.47-35.95Q288.07-35.95 290.45-35.08 292.82-34.2 294.37-32.33 295.92-30.45 295.92-27.4L295.92-27.4Q295.92-24.95 294.85-22.9 293.77-20.85 291.9-19.15 290.02-17.45 287.62-16.05L287.62-16.05Q286.02-15.1 284.75-14.28 283.47-13.45 282.77-12.63 282.07-11.8 282.07-10.8L282.07-10.8Q282.07-10.1 282.5-9.18 282.92-8.25 283.9-7.58 284.87-6.9 286.47-6.9L286.47-6.9Q288.12-6.9 289.9-7.78 291.67-8.65 293.2-10.4 294.72-12.15 295.65-14.75 296.57-17.35 296.57-20.8L296.57-20.8 304.22-20.8Q304.17-15.35 302.52-11.33 300.87-7.3 298.15-4.67 295.42-2.05 292.12-0.78 288.82 0.5 285.47 0.5L285.47 0.5Q281.37 0.5 278.57-1.18 275.77-2.85 274.37-5.45 272.97-8.05 272.97-10.8L272.97-10.8Q272.97-13.7 274.3-15.85 275.62-18 277.57-19.6 279.52-21.2 281.37-22.35L281.37-22.35Q283.52-23.7 284.8-24.45 286.07-25.2 286.65-25.83 287.22-26.45 287.22-27.3L287.22-27.3Q287.22-28.15 286.75-28.6 286.27-29.05 285.47-29.05L285.47-29.05Q284.92-29.05 284.5-28.8 284.07-28.55 283.87-28.15 283.67-27.75 283.67-27.2L283.67-27.2Q283.67-26.55 284.1-26.03 284.52-25.5 285.52-24.63 286.52-23.75 288.22-21.9L288.22-21.9 308.97 0ZM336.62 0L322.97 0 322.97-35.5 336.62-35.5Q342.52-35.5 346.49-33.13 350.47-30.75 352.49-26.73 354.52-22.7 354.52-17.8L354.52-17.8Q354.52-12.4 352.29-8.4 350.07-4.4 346.04-2.2 342.02 0 336.62 0L336.62 0ZM344.62-17.8L344.62-17.8Q344.62-20.55 343.67-22.63 342.72-24.7 340.92-25.85 339.12-27 336.62-27L336.62-27 332.72-27 332.72-8.5 336.62-8.5Q339.17-8.5 340.94-9.7 342.72-10.9 343.67-13.03 344.62-15.15 344.62-17.8ZM367.37 0L357.87 0 357.87-26.3 367.37-26.3 367.37 0ZM367.37-28.5L357.87-28.5 357.87-36.5 367.37-36.5 367.37-28.5ZM382.26 0L382.26 0Q379.71 0 377.59-1 375.46-2 373.96-3.8 372.46-5.6 371.64-8 370.81-10.4 370.81-13.2L370.81-13.2Q370.81-16.15 371.71-18.63 372.61-21.1 374.24-22.95 375.86-24.8 378.11-25.8 380.36-26.8 383.06-26.8L383.06-26.8Q385.86-26.8 388.04-25.68 390.21-24.55 391.46-22.4L391.46-22.4 391.46-26.3 399.71-26.3 399.71-2.4Q399.71 1.7 397.71 4.75 395.71 7.8 392.11 9.47 388.51 11.15 383.71 11.15L383.71 11.15Q379.56 11.15 376.44 9.85 373.31 8.55 370.91 6.1L370.91 6.1 375.91 0.9Q377.36 2.25 379.39 3.18 381.41 4.1 383.71 4.1L383.71 4.1Q385.46 4.1 386.94 3.45 388.41 2.8 389.31 1.38 390.21-0.05 390.21-2.4L390.21-2.4 390.21-4.1Q389.11-2.05 386.94-1.03 384.76 0 382.26 0ZM385.66-7.5L385.66-7.5Q386.36-7.5 386.99-7.68 387.61-7.85 388.16-8.18 388.71-8.5 389.24-9.03 389.76-9.55 390.21-10.2L390.21-10.2 390.21-14.9Q389.76-16.1 388.96-16.98 388.16-17.85 387.21-18.32 386.26-18.8 385.26-18.8L385.26-18.8Q384.26-18.8 383.39-18.35 382.51-17.9 381.86-17.07 381.21-16.25 380.86-15.2 380.51-14.15 380.51-12.95L380.51-12.95Q380.51-11.75 380.89-10.75 381.26-9.75 381.96-9.03 382.66-8.3 383.61-7.9 384.56-7.5 385.66-7.5ZM414.01 0L404.51 0 404.51-26.3 414.01-26.3 414.01 0ZM414.01-28.5L404.51-28.5 404.51-36.5 414.01-36.5 414.01-28.5ZM435.56-8.95L437.26-1.45Q435.96-0.9 434.48-0.43 433.01 0.05 431.48 0.3 429.96 0.55 428.51 0.55L428.51 0.55Q426.36 0.55 424.56-0.18 422.76-0.9 421.68-2.58 420.61-4.25 420.61-7.1L420.61-7.1 420.61-19.15 417.36-19.15 417.36-26.3 420.61-26.3 420.61-34.55 430.11-34.55 430.11-26.3 435.26-26.3 435.26-19.15 430.11-19.15 430.11-10.45Q430.11-9.15 430.66-8.63 431.21-8.1 432.16-8.1L432.16-8.1Q432.86-8.1 433.76-8.35 434.66-8.6 435.56-8.95L435.56-8.95ZM438.51-7.95L438.51-7.95Q438.51-10.6 439.96-12.63 441.41-14.65 443.98-15.8 446.56-16.95 449.86-16.95L449.86-16.95Q451.41-16.95 452.78-16.7 454.16-16.45 455.16-15.95L455.16-15.95 455.16-16.75Q455.16-18.6 454.08-19.5 453.01-20.4 450.61-20.4L450.61-20.4Q448.41-20.4 446.48-19.68 444.56-18.95 442.46-17.55L442.46-17.55 439.71-23.45Q442.36-25.15 445.28-25.98 448.21-26.8 451.56-26.8L451.56-26.8Q457.81-26.8 461.23-23.98 464.66-21.15 464.66-15.6L464.66-15.6 464.66-10.5Q464.66-9.15 465.06-8.63 465.46-8.1 466.46-8L466.46-8 466.46 0Q465.31 0.25 464.28 0.38 463.26 0.5 462.46 0.5L462.46 0.5Q459.91 0.5 458.58-0.43 457.26-1.35 456.86-3.15L456.86-3.15 456.66-4.1Q454.91-1.85 452.61-0.68 450.31 0.5 447.71 0.5L447.71 0.5Q445.11 0.5 443.01-0.6 440.91-1.7 439.71-3.63 438.51-5.55 438.51-7.95ZM453.91-7.3L453.91-7.3Q454.46-7.7 454.81-8.18 455.16-8.65 455.16-9.15L455.16-9.15 455.16-11.1Q454.36-11.4 453.33-11.6 452.31-11.8 451.51-11.8L451.51-11.8Q449.81-11.8 448.63-10.95 447.46-10.1 447.46-8.8L447.46-8.8Q447.46-8.1 447.86-7.53 448.26-6.95 448.96-6.63 449.66-6.3 450.56-6.3L450.56-6.3Q451.41-6.3 452.33-6.58 453.26-6.85 453.91-7.3ZM469.7-7.1L469.7-36.5 479.2-36.5 479.2-10.45Q479.2-9 479.83-8.22 480.45-7.45 481.65-7.45L481.65-7.45Q482.25-7.45 482.95-7.65 483.65-7.85 484.25-8.2L484.25-8.2 485.45-1.2Q483.75-0.4 481.63 0.05 479.5 0.5 477.6 0.5L477.6 0.5Q473.8 0.5 471.75-1.48 469.7-3.45 469.7-7.1L469.7-7.1ZM514.4 0.3L514.4 0.3Q510.35 0.3 507.05-1.23 503.75-2.75 501.37-5.33 499-7.9 497.72-11.13 496.45-14.35 496.45-17.8L496.45-17.8Q496.45-21.35 497.8-24.55 499.15-27.75 501.57-30.28 504-32.8 507.32-34.25 510.65-35.7 514.6-35.7L514.6-35.7Q518.65-35.7 521.95-34.18 525.25-32.65 527.6-30.05 529.95-27.45 531.22-24.23 532.5-21 532.5-17.6L532.5-17.6Q532.5-14.1 531.17-10.9 529.85-7.7 527.42-5.18 525-2.65 521.7-1.18 518.4 0.3 514.4 0.3ZM506.35-17.7L506.35-17.7Q506.35-15.9 506.85-14.23 507.35-12.55 508.35-11.23 509.35-9.9 510.87-9.13 512.4-8.35 514.5-8.35L514.5-8.35Q516.6-8.35 518.15-9.15 519.7-9.95 520.67-11.33 521.65-12.7 522.12-14.38 522.6-16.05 522.6-17.8L522.6-17.8Q522.6-19.6 522.1-21.25 521.6-22.9 520.6-24.23 519.6-25.55 518.05-26.3 516.5-27.05 514.45-27.05L514.45-27.05Q512.35-27.05 510.82-26.25 509.3-25.45 508.3-24.13 507.3-22.8 506.82-21.13 506.35-19.45 506.35-17.7ZM553.45 0.5L553.45 0.5Q550.6 0.5 548.5-0.63 546.39-1.75 545.25-3.9L545.25-3.9 545.25 10.65 535.75 10.65 535.75-26.3 544-26.3 544-22.35Q545.39-24.5 547.47-25.65 549.55-26.8 552.5-26.8L552.5-26.8Q555.14-26.8 557.35-25.8 559.55-24.8 561.2-22.95 562.85-21.1 563.75-18.65 564.64-16.2 564.64-13.25L564.64-13.25Q564.64-9.3 563.2-6.2 561.75-3.1 559.22-1.3 556.7 0.5 553.45 0.5ZM550.14-7.5L550.14-7.5Q551.2-7.5 552.07-7.95 552.95-8.4 553.6-9.2 554.25-10 554.6-11.05 554.95-12.1 554.95-13.3L554.95-13.3Q554.95-14.55 554.57-15.55 554.2-16.55 553.5-17.28 552.8-18 551.85-18.4 550.89-18.8 549.75-18.8L549.75-18.8Q549.1-18.8 548.47-18.63 547.85-18.45 547.3-18.13 546.75-17.8 546.22-17.3 545.7-16.8 545.25-16.1L545.25-16.1 545.25-11.55Q545.7-10.4 546.47-9.47 547.25-8.55 548.2-8.03 549.14-7.5 550.14-7.5ZM584.54-8.95L586.24-1.45Q584.94-0.9 583.47-0.43 581.99 0.05 580.47 0.3 578.94 0.55 577.49 0.55L577.49 0.55Q575.34 0.55 573.54-0.18 571.74-0.9 570.67-2.58 569.59-4.25 569.59-7.1L569.59-7.1 569.59-19.15 566.34-19.15 566.34-26.3 569.59-26.3 569.59-34.55 579.09-34.55 579.09-26.3 584.24-26.3 584.24-19.15 579.09-19.15 579.09-10.45Q579.09-9.15 579.64-8.63 580.19-8.1 581.14-8.1L581.14-8.1Q581.84-8.1 582.74-8.35 583.64-8.6 584.54-8.95L584.54-8.95ZM598.44 0L588.94 0 588.94-26.3 598.44-26.3 598.44 0ZM598.44-28.5L588.94-28.5 588.94-36.5 598.44-36.5 598.44-28.5ZM645.64-17.3L645.64 0 636.14 0 636.14-14.8Q636.14-16.75 635.36-17.63 634.59-18.5 633.49-18.5L633.49-18.5Q632.39-18.5 631.09-17.45 629.79-16.4 629.19-14.75L629.19-14.75 629.19 0 619.69 0 619.69-14.8Q619.69-16.75 618.91-17.63 618.14-18.5 617.04-18.5L617.04-18.5Q615.94-18.5 614.64-17.45 613.34-16.4 612.74-14.75L612.74-14.75 612.74 0 603.24 0 603.24-26.3 611.79-26.3 611.79-22.4Q613.19-24.55 615.64-25.68 618.09-26.8 621.44-26.8L621.44-26.8Q624.69-26.8 626.34-25.4 627.99-24 628.54-22.25L628.54-22.25Q629.94-24.4 632.39-25.6 634.84-26.8 637.89-26.8L637.89-26.8Q640.49-26.8 642.04-25.85 643.59-24.9 644.36-23.4 645.14-21.9 645.39-20.28 645.64-18.65 645.64-17.3L645.64-17.3ZM659.73 0L650.23 0 650.23-26.3 659.73-26.3 659.73 0ZM659.73-28.5L650.23-28.5 650.23-36.5 659.73-36.5 659.73-28.5ZM675.08 0.5L675.08 0.5Q671.63 0.5 668.31-0.63 664.98-1.75 662.68-3.9L662.68-3.9 665.93-9.75Q668.38-8.15 670.66-7.25 672.93-6.35 674.78-6.35L674.78-6.35Q675.83-6.35 676.33-6.63 676.83-6.9 676.83-7.55L676.83-7.55Q676.83-8 676.48-8.3 676.13-8.6 675.36-8.9 674.58-9.2 673.38-9.55L673.38-9.55Q670.28-10.65 668.21-11.6 666.13-12.55 665.11-13.93 664.08-15.3 664.08-17.6L664.08-17.6Q664.08-20.3 665.43-22.38 666.78-24.45 669.31-25.65 671.83-26.85 675.38-26.85L675.38-26.85Q678.03-26.85 680.71-26.03 683.38-25.2 685.88-23.05L685.88-23.05 682.28-17.25Q679.78-18.8 678.06-19.45 676.33-20.1 674.98-20.1L674.98-20.1Q674.33-20.1 673.86-19.95 673.38-19.8 673.13-19.5 672.88-19.2 672.88-18.7L672.88-18.7Q672.88-18.2 673.23-17.88 673.58-17.55 674.33-17.28 675.08-17 676.23-16.65L676.23-16.65Q679.63-15.65 681.78-14.63 683.93-13.6 684.96-12.15 685.98-10.7 685.98-8.35L685.98-8.35Q685.98-4.2 683.06-1.85 680.13 0.5 675.08 0.5ZM688.13-7.95L688.13-7.95Q688.13-10.6 689.58-12.63 691.03-14.65 693.6-15.8 696.18-16.95 699.48-16.95L699.48-16.95Q701.03-16.95 702.4-16.7 703.78-16.45 704.78-15.95L704.78-15.95 704.78-16.75Q704.78-18.6 703.7-19.5 702.63-20.4 700.23-20.4L700.23-20.4Q698.03-20.4 696.1-19.68 694.18-18.95 692.08-17.55L692.08-17.55 689.33-23.45Q691.98-25.15 694.9-25.98 697.83-26.8 701.18-26.8L701.18-26.8Q707.43-26.8 710.85-23.98 714.28-21.15 714.28-15.6L714.28-15.6 714.28-10.5Q714.28-9.15 714.68-8.63 715.08-8.1 716.08-8L716.08-8 716.08 0Q714.93 0.25 713.9 0.38 712.88 0.5 712.08 0.5L712.08 0.5Q709.53 0.5 708.2-0.43 706.88-1.35 706.48-3.15L706.48-3.15 706.28-4.1Q704.53-1.85 702.23-0.68 699.93 0.5 697.33 0.5L697.33 0.5Q694.73 0.5 692.63-0.6 690.53-1.7 689.33-3.63 688.13-5.55 688.13-7.95ZM703.53-7.3L703.53-7.3Q704.08-7.7 704.43-8.18 704.78-8.65 704.78-9.15L704.78-9.15 704.78-11.1Q703.98-11.4 702.95-11.6 701.93-11.8 701.13-11.8L701.13-11.8Q699.43-11.8 698.25-10.95 697.08-10.1 697.08-8.8L697.08-8.8Q697.08-8.1 697.48-7.53 697.88-6.95 698.58-6.63 699.28-6.3 700.18-6.3L700.18-6.3Q701.03-6.3 701.95-6.58 702.88-6.85 703.53-7.3ZM735.98-8.95L737.68-1.45Q736.38-0.9 734.9-0.43 733.43 0.05 731.9 0.3 730.38 0.55 728.93 0.55L728.93 0.55Q726.78 0.55 724.98-0.18 723.18-0.9 722.1-2.58 721.03-4.25 721.03-7.1L721.03-7.1 721.03-19.15 717.78-19.15 717.78-26.3 721.03-26.3 721.03-34.55 730.53-34.55 730.53-26.3 735.68-26.3 735.68-19.15 730.53-19.15 730.53-10.45Q730.53-9.15 731.08-8.63 731.63-8.1 732.58-8.1L732.58-8.1Q733.28-8.1 734.18-8.35 735.08-8.6 735.98-8.95L735.98-8.95ZM749.87 0L740.37 0 740.37-26.3 749.87-26.3 749.87 0ZM749.87-28.5L740.37-28.5 740.37-36.5 749.87-36.5 749.87-28.5ZM767.62 0.5L767.62 0.5Q764.12 0.5 761.42-0.6 758.72-1.7 756.9-3.63 755.07-5.55 754.15-8 753.22-10.45 753.22-13.15L753.22-13.15Q753.22-15.85 754.15-18.32 755.07-20.8 756.9-22.7 758.72-24.6 761.42-25.7 764.12-26.8 767.62-26.8L767.62-26.8Q771.17-26.8 773.85-25.7 776.52-24.6 778.35-22.7 780.17-20.8 781.1-18.32 782.02-15.85 782.02-13.15L782.02-13.15Q782.02-10.45 781.1-8 780.17-5.55 778.35-3.63 776.52-1.7 773.85-0.6 771.17 0.5 767.62 0.5ZM762.97-13.15L762.97-13.15Q762.97-11.4 763.57-10.13 764.17-8.85 765.22-8.18 766.27-7.5 767.62-7.5L767.62-7.5Q768.97-7.5 770.02-8.18 771.07-8.85 771.67-10.13 772.27-11.4 772.27-13.15L772.27-13.15Q772.27-14.9 771.67-16.18 771.07-17.45 770.02-18.13 768.97-18.8 767.62-18.8L767.62-18.8Q766.27-18.8 765.22-18.13 764.17-17.45 763.57-16.18 762.97-14.9 762.97-13.15ZM811.82-17.3L811.82 0 802.32 0 802.32-14.8Q802.32-16.75 801.44-17.63 800.57-18.5 799.42-18.5L799.42-18.5Q798.62-18.5 797.72-18.03 796.82-17.55 796.07-16.7 795.32-15.85 794.87-14.75L794.87-14.75 794.87 0 785.37 0 785.37-26.3 793.92-26.3 793.92-22.4Q794.87-23.85 796.32-24.83 797.77-25.8 799.67-26.3 801.57-26.8 803.82-26.8L803.82-26.8Q806.52-26.8 808.12-25.85 809.72-24.9 810.52-23.4 811.32-21.9 811.57-20.28 811.82-18.65 811.82-17.3L811.82-17.3Z" opacity="1" transform="matrix(1,0,0,1,0,0)" fill="#aaaaaa" class="slogan-text-1" data-fill-palette-color="secondary" id="text-1"></path></svg></g></svg></g></svg></g></svg></g><g><svg viewBox="0 0 101.51692009489344 89.54152396958989" height="89.54152396958989" width="101.51692009489344"><g><svg xmlns="http://www.w3.org/2000/svg" xmlns:xlink="http://www.w3.org/1999/xlink" version="1.1" x="0" y="0" viewBox="1.4 7.100000000000003 97.27499999999999 85.79999999999998" enable-background="new 0 0 100 100" xml:space="preserve" height="89.54152396958989" width="101.51692009489344" class="icon-icon-0" data-fill-palette-color="accent" id="icon-0"><path d="M11.9 80c0-1.4 1.1-2.5 2.5-2.5h34.1c1.4 0 2.5 1.1 2.5 2.5 0 1.4-1.1 2.5-2.5 2.5H14.4C13.1 82.5 11.9 81.4 11.9 80zM1.4 29.3v53c0 5.9 4.7 10.6 10.6 10.6h47c5.9 0 10.6-4.7 10.6-10.6v-5.7c-1.6 0.7-3.3 1.3-5 1.7v4c0 3.1-2.5 5.6-5.6 5.6H12c-3.1 0-5.6-2.5-5.6-5.6V30.8h8.9c5.8 0 10.6-4.8 10.6-10.6v-8.1H59c3.1 0 5.6 2.5 5.6 5.6v5.7c1.7 0.4 3.4 1 5 1.7v-7.4c0-5.9-4.7-10.6-10.6-10.6H24.3c-0.6 0-1.2 0.1-1.8 0.3-0.6 0.2-1.1 0.6-1.5 1L2.8 25.9c-0.5 0.4-0.8 1-1.1 1.6S1.4 28.7 1.4 29.3zM36.8 32.5c0.5-0.5 1-1.1 1.5-1.6 1.3-1.3 2.7-2.4 4.1-3.4h-9.1c-1.4 0-2.5 1.1-2.5 2.5s1.1 2.5 2.5 2.5H36.8zM14.6 72.5h25.5c-0.7-0.5-1.3-1.1-1.9-1.7-1-1-2-2.1-2.8-3.3H14.6c-1.4 0-2.5 1.1-2.5 2.5C12.1 71.4 13.3 72.5 14.6 72.5zM12.1 60c0 1.4 1.1 2.5 2.5 2.5h17.9c-0.7-1.6-1.3-3.3-1.7-5H14.6C13.3 57.5 12.1 58.6 12.1 60L12.1 60zM14.6 52.5h15.4c0-0.6-0.1-1.1-0.1-1.7 0-1.1 0.1-2.2 0.2-3.3H14.6c-1.4 0-2.5 1.1-2.5 2.5C12.1 51.4 13.3 52.5 14.6 52.5zM12.1 40c0 1.4 1.1 2.5 2.5 2.5h16.6c0.5-1.7 1.2-3.4 2.1-5H14.6C13.3 37.5 12.1 38.6 12.1 40zM58.2 74c-5.9 0-11.9-2.3-16.4-6.8-9.1-9.1-9.1-23.7 0-32.8 4.5-4.5 10.5-6.8 16.4-6.8 5.9 0 11.9 2.3 16.4 6.8 8.3 8.3 9 21.3 2.1 30.4l2.5 2.5 0.9-0.9 17.3 17.3c1.7 1.7 1.7 4.5 0 6.2-0.9 0.9-2 1.3-3.1 1.3-1.1 0-2.2-0.4-3.1-1.3L73.8 72.7l0.9-0.9-2.5-2.5C68.1 72.4 63.1 74 58.2 74zM46.1 62.9c3.3 3.3 7.7 5 12.1 5 4.4 0 8.8-1.7 12.1-5 6.7-6.7 6.7-17.5 0-24.2-3.3-3.3-7.7-5-12.1-5-4.4 0-8.8 1.7-12.1 5C39.4 45.4 39.4 56.3 46.1 62.9zM69 58.2c-0.2-0.1-0.5-0.2-0.8-0.3-3.1-0.8-5.7-1.9-5.7-1.9-0.3-0.4-0.5-1.2-0.5-1.6 0.7-0.9 1.1-2.1 1.2-3.1 0.3 0.2 0.8 0.1 1.3-1.8 0.4-1.6 0.2-2.1-0.2-2.2h0c1.2-6-1.6-6.2-1.6-6.2s-0.4-0.8-1.6-1.5c-0.8-0.5-1.8-0.8-3.2-0.7-0.4 0-0.9 0.1-1.3 0.2l0 0c-0.5 0.2-1 0.4-1.4 0.7-0.5 0.3-1 0.7-1.4 1.2-0.7 0.7-1.3 1.6-1.6 2.8-0.3 1-0.2 2 0.1 3.1-0.5 0-1.1 0.3-0.5 2.3 0.4 1.5 0.8 1.9 1.1 1.9 0.2 1.1 0.5 2.3 1.3 3.4-0.1 0.4-0.2 1-0.5 1.5 0 0-2.7 1.3-5.8 2.1-0.3 0.1-0.6 0.2-0.8 0.3 2.3 3.5 6.3 5.8 10.9 5.8C62.7 64 66.7 61.7 69 58.2z" fill="#aaaaaa" data-fill-palette-color="accent"></path></svg></g></svg></g></svg></g><defs></defs></svg><rect width="395.52" height="69.8798734343998" fill="none" stroke="none" visibility="hidden"></rect></g></svg></g></svg>